<?xml version="1.0" encoding="utf-8"?>
<!-- Generator: Adobe Illustrator 16.0.0, SVG Export Plug-In . SVG Version: 6.00 Build 0)  -->
<!DOCTYPE svg PUBLIC "-//W3C//DTD SVG 1.1//EN" "http://www.w3.org/Graphics/SVG/1.1/DTD/svg11.dtd">
<svg version="1.1" id="Layer_1" xmlns="http://www.w3.org/2000/svg" xmlns:xlink="http://www.w3.org/1999/xlink" x="0px" y="0px"
	 width="29px" height="16.781px" viewBox="0 0 29 16.781" enable-background="new 0 0 29 16.781" xml:space="preserve">
<g id="amheHW.tif">
	<g>
		<path fill="#2E6BAE" d="M14.669,16.642c-0.206,0-0.412,0-0.617,0c-0.09-0.014-0.18-0.038-0.271-0.042
			c-1.491-0.064-2.926-0.397-4.31-0.94c-3.594-1.411-6.544-3.724-9.113-6.561c-0.39-0.429-0.367-1.191,0.025-1.624
			c1.509-1.668,3.192-3.138,5.062-4.388c2.058-1.375,4.258-2.43,6.716-2.861C12.766,0.119,13.38,0.074,13.99,0
			c0.247,0,0.493,0,0.739,0C14.82,0.015,14.91,0.038,15,0.042c1.51,0.076,2.96,0.427,4.363,0.977
			c2.803,1.096,5.22,2.789,7.406,4.826c0.666,0.622,1.275,1.306,1.918,1.955c0.213,0.217,0.252,0.829,0.047,1.061
			c-1.58,1.799-3.377,3.353-5.373,4.676c-2.096,1.389-4.336,2.449-6.834,2.886C15.914,16.53,15.289,16.571,14.669,16.642z
			 M1.359,8.229c2.14,2.26,4.433,4.137,7.128,5.488c1.64,0.82,3.362,1.374,5.203,1.487c1.814,0.113,3.557-0.251,5.229-0.932
			c3.209-1.307,5.869-3.387,8.231-5.88c0.02-0.021,0.024-0.053,0.035-0.075c-0.013-0.026-0.017-0.047-0.029-0.062
			c-2.297-2.393-4.855-4.422-7.922-5.754c-2.887-1.253-5.824-1.448-8.817-0.399C8.222,2.871,6.253,4.046,4.458,5.505
			C3.401,6.365,2.408,7.303,1.359,8.229z"/>
		<path fill="#2E6BAE" d="M13.686,4.232c0.247,0.341,0.473,0.651,0.731,1.006c-0.98-0.114-1.894-0.219-2.831-0.328
			c0.174-0.926,0.343-1.827,0.525-2.805c0.242,0.325,0.447,0.587,0.636,0.86c0.1,0.145,0.196,0.19,0.381,0.149
			c3.447-0.747,6.606,1.865,6.526,5.384c-0.061,2.731-2.233,4.938-5.076,5.159c-2.56,0.199-5.052-1.747-5.525-4.311
			C8.93,8.676,8.901,8.007,9.065,7.31C9.442,7.408,9.796,7.5,10.178,7.6c-0.19,1.652,0.305,3.033,1.638,4.05
			c0.917,0.701,1.973,0.953,3.11,0.784c2.32-0.346,3.903-2.564,3.484-4.846C18.007,5.385,15.807,3.798,13.686,4.232z"/>
		<path fill="#2E6BAE" d="M16.395,8.218c0.006,1.071-0.867,1.951-1.931,1.952c-1.074,0.001-1.948-0.862-1.952-1.931
			c-0.005-1.07,0.863-1.947,1.931-1.952C15.512,6.282,16.391,7.15,16.395,8.218z"/>
	</g>
</g>
</svg>
