<?xml version="1.0" encoding="utf-8"?>
<!-- Generator: Adobe Illustrator 16.0.0, SVG Export Plug-In . SVG Version: 6.00 Build 0)  -->
<!DOCTYPE svg PUBLIC "-//W3C//DTD SVG 1.1//EN" "http://www.w3.org/Graphics/SVG/1.1/DTD/svg11.dtd">
<svg version="1.1" id="Layer_1" xmlns="http://www.w3.org/2000/svg" xmlns:xlink="http://www.w3.org/1999/xlink" x="0px" y="0px"
	 width="29px" height="34.75px" viewBox="0 0 29 34.75" enable-background="new 0 0 29 34.75" xml:space="preserve">
<g id="_x36_WHQb9.tif">
	<g>
		<path fill="#2E6BAE" d="M0,34.75C0,23.17,0,11.588,0,0c9.6,0,19.202,0,28.816,0c0,11.578,0,23.164,0,34.75
			C19.217,34.75,9.609,34.75,0,34.75z M1.832,32.917c8.396,0,16.768,0,25.163,0c0-10.374,0-20.72,0-31.091
			c-8.396,0-16.768,0-25.163,0C1.832,12.198,1.832,22.546,1.832,32.917z"/>
		<path fill="#2E6BAE" d="M19.928,24.034c0.49,0.261,0.993,0.479,1.444,0.774c0.985,0.65,1.646,1.547,1.894,2.717
			c0.109,0.518,0.057,0.576-0.471,0.576c-2.908,0-5.816,0-8.725-0.002c-0.453,0-0.514-0.062-0.419-0.516
			c0.333-1.577,1.335-2.595,2.751-3.258c0.098-0.045,0.197-0.084,0.296-0.123c0.085-0.034,0.172-0.066,0.296-0.114
			c-0.549-0.7-0.875-1.471-1.025-2.319c-0.183-1.027,0.062-1.938,0.803-2.684c0.627-0.631,1.39-0.917,2.265-0.65
			c1.019,0.312,1.637,1.053,1.856,2.069c0.265,1.222-0.16,2.312-0.815,3.323C20.027,23.907,19.969,23.979,19.928,24.034z"/>
	</g>
</g>
</svg>
