<?xml version="1.0" encoding="utf-8"?>
<!-- Generator: Adobe Illustrator 16.0.0, SVG Export Plug-In . SVG Version: 6.00 Build 0)  -->
<!DOCTYPE svg PUBLIC "-//W3C//DTD SVG 1.1//EN" "http://www.w3.org/Graphics/SVG/1.1/DTD/svg11.dtd">
<svg version="1.1" id="Layer_1" xmlns="http://www.w3.org/2000/svg" xmlns:xlink="http://www.w3.org/1999/xlink" x="0px" y="0px"
	 width="29px" height="36.395px" viewBox="0 0 29 36.395" enable-background="new 0 0 29 36.395" xml:space="preserve">
<g id="vgJ6CJ.tif">
	<g>
		<path fill="#2E6BAE" d="M28.963,8.613c0,9.26,0,18.521,0,27.782c-9.654,0-19.309,0-28.963,0C0,24.264,0,12.131,0,0
			c6.699,0,13.398,0,20.098,0c0.034,0.043,0.066,0.09,0.105,0.129c2.831,2.765,5.664,5.53,8.496,8.293
			C28.777,8.497,28.875,8.55,28.963,8.613z M19.014,9.869c-0.054-2.712-0.104-5.358-0.156-8.021c-5.703,0-11.35,0-17.012,0
			c0,10.914,0,21.796,0,32.689c8.472,0,16.917,0,25.357,0c0-8.182,0-16.323,0-24.51C24.473,9.974,21.771,9.922,19.014,9.869z"/>
		<path fill="#2E6BAE" d="M19.465,24.631c1.319,0,2.568,0,3.819,0c0.694,0,0.694,0,0.694,0.688c0,0.24-0.015,0.479,0.002,0.718
			c0.025,0.335-0.121,0.444-0.444,0.442c-1.209-0.012-2.42-0.004-3.632-0.004c-0.122,0-0.247,0.012-0.416,0.021
			c-0.008,0.162-0.022,0.312-0.022,0.459c-0.002,1.184-0.012,2.365,0.007,3.549c0.006,0.364-0.117,0.516-0.488,0.49
			c-0.309-0.021-0.619-0.018-0.928,0c-0.332,0.016-0.443-0.123-0.439-0.449c0.013-1.238,0.006-2.477,0.004-3.714
			c0-0.099-0.014-0.194-0.021-0.332c-0.162-0.008-0.311-0.022-0.459-0.022c-1.183-0.004-2.365-0.015-3.545,0.006
			c-0.389,0.007-0.541-0.123-0.508-0.514c0.025-0.292,0.022-0.591,0-0.884c-0.027-0.36,0.131-0.463,0.471-0.459
			c1.238,0.015,2.477,0.006,3.715,0.004c0.097,0,0.192-0.009,0.35-0.019c0-0.256,0-0.504,0-0.752c0-1.099,0.01-2.193-0.006-3.293
			c-0.004-0.342,0.104-0.493,0.46-0.471c0.31,0.02,0.62,0.019,0.929,0c0.346-0.021,0.473,0.116,0.467,0.467
			c-0.015,1.182-0.006,2.363-0.006,3.547C19.465,24.261,19.465,24.413,19.465,24.631z"/>
	</g>
</g>
</svg>
