<?xml version="1.0" encoding="utf-8"?>
<!-- Generator: Adobe Illustrator 16.0.0, SVG Export Plug-In . SVG Version: 6.00 Build 0)  -->
<!DOCTYPE svg PUBLIC "-//W3C//DTD SVG 1.1//EN" "http://www.w3.org/Graphics/SVG/1.1/DTD/svg11.dtd">
<svg version="1.1" id="Layer_1" xmlns="http://www.w3.org/2000/svg" xmlns:xlink="http://www.w3.org/1999/xlink" x="0px" y="0px"
	 width="24.834px" height="37px" viewBox="0 0 24.834 37" enable-background="new 0 0 24.834 37" xml:space="preserve">
<g id="k06L5N.tif">
	<g>
		<path fill="#2E6BAE" d="M0,3.897c0.137,0.009,0.273,0.027,0.41,0.027c1.851,0.002,3.702,0.012,5.553-0.007
			c0.362-0.004,0.463,0.108,0.431,0.449C6.366,4.65,6.371,4.941,6.392,5.228C6.414,5.511,6.318,5.603,6.027,5.6
			C4.739,5.585,3.452,5.593,2.165,5.593c-0.137,0-0.273,0-0.439,0c0,9.882,0,19.738,0,29.621c7.119,0,14.237,0,21.385,0
			c0-9.858,0-19.714,0-29.621c-0.141,0-0.273,0-0.407,0c-1.253,0-2.506-0.008-3.761,0.006c-0.291,0.003-0.385-0.089-0.364-0.373
			c0.021-0.286,0.026-0.577-0.001-0.862c-0.032-0.341,0.068-0.453,0.432-0.449c1.805,0.02,3.609,0.01,5.414,0.007
			c0.137,0,0.273-0.018,0.41-0.027c0,11.014,0,22.027,0,33.041c-8.277,0-16.555,0-24.833,0C0,25.924,0,14.911,0,3.897z"/>
		<path fill="#2E6BAE" d="M12.5,7.664c-1.804,0-3.608-0.005-5.412,0.005C6.809,7.671,6.71,7.601,6.712,7.305
			c0.013-1.631,0.012-3.263,0-4.895c-0.001-0.27,0.072-0.359,0.35-0.354c1.022,0.015,2.045-0.001,3.067,0.01
			c0.332,0.004,0.491-0.092,0.54-0.454c0.125-0.922,0.629-1.423,1.511-1.589c0.841-0.158,1.767,0.475,1.937,1.324
			c0.019,0.09,0.048,0.18,0.048,0.271c0.005,0.369,0.215,0.452,0.543,0.448c1.034-0.012,2.067,0.01,3.103-0.012
			c0.338-0.007,0.455,0.067,0.449,0.432c-0.021,1.597-0.016,3.194-0.002,4.792c0.002,0.296-0.068,0.396-0.382,0.394
			C16.084,7.656,14.292,7.664,12.5,7.664z"/>
	</g>
</g>
</svg>
