<?xml version="1.0" encoding="utf-8"?>
<!-- Generator: Adobe Illustrator 16.0.0, SVG Export Plug-In . SVG Version: 6.00 Build 0)  -->
<!DOCTYPE svg PUBLIC "-//W3C//DTD SVG 1.1//EN" "http://www.w3.org/Graphics/SVG/1.1/DTD/svg11.dtd">
<svg version="1.1" id="Layer_1" xmlns="http://www.w3.org/2000/svg" xmlns:xlink="http://www.w3.org/1999/xlink" x="0px" y="0px"
	 width="29px" height="35.941px" viewBox="0 0 29 35.941" enable-background="new 0 0 29 35.941" xml:space="preserve">
<g id="mnF1yr.tif">
	<g>
		<path fill="#2E6BAE" d="M20.027,35.941c-6.675,0-13.353,0-20.027,0C0,23.962,0,11.981,0,0c9.621,0,19.24,0,28.861,0
			c0,9.126,0,18.252,0,27.378c-1.745,1.687-3.493,3.37-5.237,5.06C22.422,33.604,21.227,34.773,20.027,35.941z M27.134,26.042
			c0-0.163,0-0.251,0-0.34c0-7.844-0.002-15.687,0.009-23.53c0-0.331-0.119-0.381-0.408-0.381c-8.18,0.006-16.359,0.005-24.54,0.006
			c-0.119,0-0.237,0.014-0.352,0.021c0,10.794,0,21.55,0,32.311c0.11,0.007,0.188,0.018,0.266,0.018
			c5.449,0.004,10.9,0,16.349,0.006c0.271,0,0.343-0.09,0.347-0.348c0.018-1.478,0.057-2.955,0.072-4.434
			c0.014-1.051,0.004-2.102,0.004-3.173C21.682,26.145,24.393,26.093,27.134,26.042z"/>
		<path fill="#2E6BAE" d="M5.966,18.813C5.782,18.664,5.575,18.57,5.5,18.414c-0.071-0.145-0.027-0.365,0.019-0.536
			c0.028-0.106,0.152-0.188,0.24-0.276c3.924-3.91,7.849-7.82,11.776-11.729c0.078-0.079,0.154-0.165,0.249-0.225
			c0.252-0.161,0.5-0.132,0.704,0.077c0.209,0.21,0.223,0.459,0.057,0.706c-0.054,0.083-0.132,0.151-0.203,0.223
			C14.4,10.579,10.46,14.506,6.514,18.427C6.369,18.571,6.178,18.666,5.966,18.813z"/>
		<path fill="#2E6BAE" d="M8.924,9.062c0,0.759-0.003,1.465,0.002,2.171c0.001,0.323-0.135,0.543-0.455,0.62
			c-0.343,0.081-0.656-0.185-0.66-0.572c-0.01-0.719-0.003-1.438-0.003-2.197C7.68,9.077,7.562,9.063,7.444,9.063
			c-0.573-0.002-1.146,0-1.718-0.001C5.251,9.06,4.996,8.867,4.992,8.51C4.989,8.151,5.244,7.949,5.713,7.948
			c0.683-0.001,1.366,0,2.095,0c0-0.429,0-0.829,0-1.229c0-0.281-0.001-0.562,0-0.842C7.81,5.408,8.006,5.146,8.356,5.141
			C8.72,5.134,8.923,5.403,8.924,5.894c0.002,0.562,0,1.123,0,1.685c0.002,0.11,0.01,0.219,0.017,0.369c0.61,0,1.201,0,1.792,0
			c0.135,0,0.269-0.003,0.404,0.002c0.362,0.013,0.595,0.227,0.6,0.546c0.005,0.321-0.221,0.555-0.582,0.562
			c-0.607,0.012-1.212,0.004-1.82,0.005C9.215,9.062,9.095,9.062,8.924,9.062z"/>
		<path fill="#2E6BAE" d="M15.709,15.24c0.896,0,1.795-0.002,2.691,0.001c0.431,0,0.688,0.219,0.682,0.569
			c-0.006,0.336-0.254,0.553-0.668,0.554c-1.805,0.004-3.611,0.004-5.416,0c-0.411,0-0.661-0.22-0.665-0.556
			c-0.003-0.349,0.255-0.566,0.685-0.566C13.915,15.238,14.813,15.24,15.709,15.24z"/>
	</g>
</g>
</svg>
