<?xml version="1.0" encoding="utf-8"?>
<!-- Generator: Adobe Illustrator 16.0.0, SVG Export Plug-In . SVG Version: 6.00 Build 0)  -->
<!DOCTYPE svg PUBLIC "-//W3C//DTD SVG 1.1//EN" "http://www.w3.org/Graphics/SVG/1.1/DTD/svg11.dtd">
<svg version="1.1" id="Layer_1" xmlns="http://www.w3.org/2000/svg" xmlns:xlink="http://www.w3.org/1999/xlink" x="0px" y="0px"
	 width="29px" height="25.307px" viewBox="0 0 29 25.307" enable-background="new 0 0 29 25.307" xml:space="preserve">
<g id="hFElMs.tif">
	<g>
		<path fill="#2E6BAE" d="M29,4.496c0,6.936,0,13.871,0,20.811c-9.613,0-19.229,0-28.853,0c0-8.434,0-16.87,0-25.307
			c3.176,0,6.357,0,9.538,0c0,1.494,0,2.987,0,4.496C16.15,4.496,22.574,4.496,29,4.496z M1.429,24.014c8.773,0,17.526,0,26.272,0
			c0-6.09,0-12.16,0-18.228c-8.768,0-17.513,0-26.272,0C1.429,11.864,1.429,17.928,1.429,24.014z"/>
		<path fill="#2E6BAE" d="M22.4,18.361c0.963,0.952,1.922,1.888,2.861,2.843c0.158,0.16,0.289,0.39,0.334,0.606
			c0.053,0.258-0.104,0.49-0.354,0.6c-0.267,0.115-0.517,0.08-0.736-0.141c-0.923-0.933-1.854-1.857-2.78-2.789
			c-0.078-0.078-0.133-0.178-0.192-0.26c-2.38,1.782-5.24,1.182-6.808-0.55c-1.902-2.097-1.651-5.045,0.035-6.809
			c1.831-1.914,4.669-2.145,6.729-0.548C23.482,12.862,24.211,15.845,22.4,18.361z M14.737,15.283
			c-0.051,1.932,1.578,3.684,3.664,3.693c2.041,0.009,3.709-1.618,3.713-3.702c0.004-2.02-1.646-3.637-3.653-3.684
			C16.455,11.544,14.663,13.313,14.737,15.283z"/>
	</g>
</g>
</svg>
