<?xml version="1.0" encoding="utf-8"?>
<!-- Generator: Adobe Illustrator 16.0.0, SVG Export Plug-In . SVG Version: 6.00 Build 0)  -->
<!DOCTYPE svg PUBLIC "-//W3C//DTD SVG 1.1//EN" "http://www.w3.org/Graphics/SVG/1.1/DTD/svg11.dtd">
<svg version="1.1" id="Layer_1" xmlns="http://www.w3.org/2000/svg" xmlns:xlink="http://www.w3.org/1999/xlink" x="0px" y="0px"
	 width="29px" height="36.441px" viewBox="0 0 29 36.441" enable-background="new 0 0 29 36.441" xml:space="preserve">
<g id="_x30_Vc2GZ.tif">
	<g>
		<path fill="#2E6BAE" d="M29,8.624c0,9.272,0,18.545,0,27.817c-9.666,0-19.333,0-29,0C0,24.294,0,12.147,0,0
			c6.708,0,13.416,0,20.124,0c0.034,0.043,0.065,0.09,0.106,0.129c2.834,2.769,5.67,5.538,8.508,8.305
			C28.812,8.508,28.912,8.561,29,8.624z M1.841,34.582c8.489,0,16.943,0,25.396,0c0-8.191,0-16.344,0-24.542
			c-2.742-0.054-5.461-0.107-8.199-0.161c-0.053-2.712-0.104-5.363-0.156-8.029c-5.709,0-11.363,0-17.04,0
			C1.841,12.768,1.841,23.654,1.841,34.582z"/>
		<path fill="#2E6BAE" d="M16.512,28.499c1.954-1.899,3.844-3.735,5.731-5.573c0.11-0.107,0.212-0.229,0.332-0.324
			c0.335-0.27,0.776-0.248,1.079,0.041c0.304,0.291,0.348,0.728,0.102,1.077c-0.064,0.091-0.146,0.171-0.227,0.25
			c-2.039,2.064-4.078,4.13-6.118,6.194c-0.571,0.576-0.961,0.574-1.535-0.004c-1.042-1.051-2.085-2.1-3.121-3.155
			c-0.4-0.407-0.423-0.883-0.079-1.235c0.341-0.349,0.835-0.332,1.233,0.062c0.82,0.814,1.632,1.636,2.444,2.458
			C16.439,28.379,16.506,28.491,16.512,28.499z"/>
	</g>
</g>
</svg>
