<?xml version="1.0" encoding="utf-8"?>
<!-- Generator: Adobe Illustrator 16.0.0, SVG Export Plug-In . SVG Version: 6.00 Build 0)  -->
<!DOCTYPE svg PUBLIC "-//W3C//DTD SVG 1.1//EN" "http://www.w3.org/Graphics/SVG/1.1/DTD/svg11.dtd">
<svg version="1.1" id="Layer_1" xmlns="http://www.w3.org/2000/svg" xmlns:xlink="http://www.w3.org/1999/xlink" x="0px" y="0px"
	 width="28.334px" height="35.604px" viewBox="0 0 28.334 35.604" enable-background="new 0 0 28.334 35.604" xml:space="preserve">
<g id="co9T7L.tif">
	<g>
		<path fill="#2E6BAE" d="M28.334,8.426c0,9.06,0,18.118,0,27.178c-9.443,0-18.889,0-28.334,0C0,23.734,0,11.868,0,0
			c6.554,0,13.107,0,19.66,0c0.035,0.042,0.064,0.088,0.104,0.126c2.771,2.706,5.541,5.411,8.312,8.113
			C28.15,8.312,28.248,8.364,28.334,8.426z M1.816,1.79c0,10.697,0,21.353,0,32c8.29,0,16.54,0,24.799,0c0-8,0-15.964,0-23.98
			c-2.678-0.053-5.332-0.104-8.016-0.157C18.548,7,18.497,4.4,18.445,1.79C12.866,1.79,7.362,1.79,1.816,1.79z"/>
		<path fill="#2E6BAE" d="M15.245,26.637c0.801,0.217,1.524,0.494,2.271,0.583c0.519,0.062,1.113-0.032,1.594-0.241
			c1.221-0.533,1.398-2.111,0.349-2.951c-0.442-0.354-0.99-0.58-1.498-0.848c-0.485-0.255-1-0.459-1.474-0.732
			c-1.086-0.627-1.596-1.578-1.411-2.83c0.176-1.197,0.942-1.917,2.049-2.306c0.667-0.235,0.67-0.226,0.67-0.935
			c0-0.192,0.021-0.388-0.004-0.577c-0.058-0.411,0.121-0.5,0.508-0.506c0.414-0.005,0.568,0.106,0.537,0.532
			c-0.028,0.38-0.11,0.859,0.074,1.121c0.153,0.218,0.668,0.169,1.014,0.268c0.354,0.1,0.71,0.215,1.044,0.368
			c0.094,0.042,0.18,0.256,0.154,0.365c-0.062,0.277-0.188,0.54-0.309,0.854c-0.153-0.062-0.287-0.113-0.42-0.169
			c-0.826-0.352-1.677-0.534-2.567-0.316c-0.701,0.172-1.175,0.601-1.289,1.334c-0.101,0.65,0.172,1.173,0.717,1.508
			c0.5,0.308,1.045,0.544,1.567,0.816c0.511,0.268,1.043,0.5,1.521,0.816c1.903,1.261,1.696,4.242-0.473,5.243
			c-0.087,0.04-0.177,0.075-0.267,0.108c-0.875,0.328-0.877,0.327-0.877,1.291c0,0.109-0.015,0.223,0.004,0.33
			c0.063,0.416-0.099,0.53-0.521,0.536c-0.44,0.007-0.541-0.146-0.517-0.547c0.025-0.409,0.129-0.923-0.067-1.203
			c-0.161-0.228-0.724-0.151-1.093-0.26c-0.473-0.138-0.934-0.315-1.395-0.489c-0.191-0.072-0.271-0.199-0.172-0.422
			C15.087,27.121,15.169,26.845,15.245,26.637z"/>
	</g>
</g>
</svg>
