<?xml version="1.0" encoding="utf-8"?>
<!-- Generator: Adobe Illustrator 16.0.0, SVG Export Plug-In . SVG Version: 6.00 Build 0)  -->
<!DOCTYPE svg PUBLIC "-//W3C//DTD SVG 1.1//EN" "http://www.w3.org/Graphics/SVG/1.1/DTD/svg11.dtd">
<svg version="1.1" id="Layer_1" xmlns="http://www.w3.org/2000/svg" xmlns:xlink="http://www.w3.org/1999/xlink" x="0px" y="0px"
	 width="29px" height="24.918px" viewBox="0 0 29 24.918" enable-background="new 0 0 29 24.918" xml:space="preserve">
<g id="GsneEf.tif">
	<g>
		<path fill="#2E6BAE" d="M28.898,10.796c0,2.145,0,4.29,0,6.434c-0.692,0-1.387,0-2.082,0c-0.006,0.107-0.012,0.17-0.012,0.233
			c0,2.414,0,4.828,0.002,7.242c0,0.068,0.012,0.143,0.021,0.213c-8.938,0-17.874,0-26.827,0c0-7.36,0-14.722,0-22.083
			c0.962,0.007,1.923,0.013,2.885,0.018c0.024,0,0.048-0.019,0.088-0.036c-0.02-0.238-0.039-0.477-0.06-0.733
			C3.527,2.021,4.122,1.962,4.716,1.9c1.834-0.193,3.665-0.389,5.496-0.58c1.833-0.191,3.665-0.375,5.497-0.565
			c1.887-0.195,3.771-0.391,5.657-0.591C21.788,0.119,22.207,0.055,22.629,0c0.055,0,0.109,0,0.164,0
			c0.225,0.859,0.454,1.716,0.667,2.578c0.054,0.212,0.136,0.29,0.365,0.286c0.89-0.015,1.78,0.004,2.67-0.012
			c0.262-0.005,0.315,0.082,0.313,0.326c-0.007,2.416-0.004,4.832-0.004,7.248c0,0.115,0,0.23,0,0.371
			C27.523,10.796,28.211,10.796,28.898,10.796z M25.58,17.22c-3.023,0-6.034,0-9.037,0c0-2.158,0-4.28,0-6.428
			c3.021,0,6.023,0,9.025,0c0-2.253,0-4.481,0-6.708c-8.117,0-16.21,0-24.318,0c0,6.536,0,13.054,0,19.583c8.118,0,16.216,0,24.33,0
			C25.58,21.52,25.58,19.387,25.58,17.22z M7.893,2.793C7.895,2.808,7.897,2.822,7.9,2.837c4.833,0,9.667,0,14.495,0
			c-0.139-0.379-0.285-0.736-0.396-1.104c-0.126-0.412-0.111-0.406-0.548-0.356c-0.784,0.09-1.57,0.169-2.354,0.25
			c-1.479,0.154-2.962,0.305-4.439,0.459c-1.51,0.156-3.016,0.314-4.524,0.471C9.385,2.636,8.639,2.715,7.893,2.793z M21.812,13.895
			c0.008-0.769-0.6-1.396-1.361-1.41c-0.78-0.014-1.415,0.601-1.424,1.375c-0.008,0.769,0.599,1.397,1.361,1.41
			C21.17,15.284,21.807,14.669,21.812,13.895z"/>
	</g>
</g>
</svg>
