<?xml version="1.0" encoding="utf-8"?>
<!-- Generator: Adobe Illustrator 16.0.0, SVG Export Plug-In . SVG Version: 6.00 Build 0)  -->
<!DOCTYPE svg PUBLIC "-//W3C//DTD SVG 1.1//EN" "http://www.w3.org/Graphics/SVG/1.1/DTD/svg11.dtd">
<svg version="1.1" id="Layer_1" xmlns="http://www.w3.org/2000/svg" xmlns:xlink="http://www.w3.org/1999/xlink" x="0px" y="0px"
	 width="24.798px" height="37px" viewBox="0 0 24.798 37" enable-background="new 0 0 24.798 37" xml:space="preserve">
<g id="r2o00P.tif">
	<g>
		<path fill="#2E6BAE" d="M0.001,8.418c8.266,0,16.531,0,24.797,0c0,9.527,0,19.055,0,28.582c-8.266,0-16.531,0-24.797,0
			C0.001,27.473,0.001,17.945,0.001,8.418z M23.167,10.073c-7.201,0-14.359,0-21.508,0c0,8.443,0,16.862,0,25.286
			c0.08,0.004,0.134,0.009,0.188,0.009c5.122,0,10.243,0.002,15.364-0.009c0.154,0,0.335-0.08,0.459-0.18
			c1.747-1.384,3.484-2.779,5.232-4.162c0.199-0.158,0.27-0.322,0.27-0.572c-0.007-6.665-0.005-13.331-0.005-19.996
			C23.167,10.331,23.167,10.213,23.167,10.073z"/>
		<path fill="#2E6BAE" d="M13.052,0c0.635,0.174,1.291,0.293,1.899,0.533c2.342,0.92,3.997,3.412,3.979,5.919
			c-0.003,0.391-0.172,0.651-0.492,0.759c-0.277,0.093-0.635,0.004-0.779-0.251c-0.098-0.169-0.146-0.386-0.154-0.584
			c-0.089-2.338-1.711-4.31-3.988-4.827c-3.095-0.704-6.114,1.625-6.213,4.793c-0.011,0.364-0.07,0.7-0.465,0.849
			C6.334,7.381,5.87,7.047,5.872,6.482c0.004-1.199,0.314-2.319,0.949-3.337c1.106-1.775,2.707-2.801,4.78-3.089
			C11.65,0.048,11.698,0.019,11.747,0C12.182,0,12.617,0,13.052,0z"/>
		<path fill="#2E6BAE" d="M18.217,12.203c0.792-0.002,1.432,0.638,1.426,1.43c-0.004,0.774-0.64,1.408-1.414,1.412
			c-0.787,0.004-1.438-0.648-1.429-1.433C16.809,12.834,17.439,12.206,18.217,12.203z"/>
		<path fill="#2E6BAE" d="M6.598,15.043c-0.775,0.01-1.423-0.614-1.44-1.386c-0.018-0.791,0.612-1.444,1.401-1.454
			c0.79-0.01,1.439,0.627,1.442,1.416C8.004,14.39,7.371,15.033,6.598,15.043z"/>
	</g>
</g>
</svg>
