<?xml version="1.0" encoding="utf-8"?>
<!-- Generator: Adobe Illustrator 16.0.0, SVG Export Plug-In . SVG Version: 6.00 Build 0)  -->
<!DOCTYPE svg PUBLIC "-//W3C//DTD SVG 1.1//EN" "http://www.w3.org/Graphics/SVG/1.1/DTD/svg11.dtd">
<svg version="1.1" id="Layer_1" xmlns="http://www.w3.org/2000/svg" xmlns:xlink="http://www.w3.org/1999/xlink" x="0px" y="0px"
	 width="29px" height="37px" viewBox="0 0 29 37" enable-background="new 0 0 29 37" xml:space="preserve">
<g id="twQBOu.tif">
	<g>
		<path fill="#2E6BAE" d="M29.015,3.869c0,4.173,0,8.347,0,12.52c-0.217,0-0.434,0-0.655,0c-0.005,0.09-0.011,0.151-0.012,0.214
			c0,2.581,0,5.161,0.001,7.742c0,0.071,0.014,0.141,0.021,0.211c-9.223,0-18.447,0-27.67,0c0.007-0.079,0.021-0.158,0.021-0.237
			c0.001-2.563,0.001-5.126,0-7.689c0-0.077-0.011-0.155-0.017-0.24c-0.245,0-0.474,0-0.703,0c0-4.173,0-8.346,0-12.52
			C0.07,3.876,0.142,3.89,0.211,3.89c3.29,0.001,6.58,0.001,9.869,0c0.077,0,0.155-0.012,0.258-0.021c0-0.113,0-0.209,0-0.306
			c0-0.795,0.002-1.591-0.001-2.387C10.335,0.785,10.324,0.392,10.316,0c2.775,0,5.553,0,8.328,0
			c-0.007,0.062-0.021,0.123-0.021,0.185c-0.001,1.163-0.001,2.325,0,3.486c0,0.068,0.017,0.135,0.026,0.22c0.099,0,0.178,0,0.257,0
			c3.289,0,6.58,0,9.869,0C28.855,3.89,28.936,3.876,29.015,3.869z M27.783,15.159c0-3.372,0-6.708,0-10.058
			c-8.858,0-17.699,0-26.549,0c0,3.361,0,6.704,0,10.057c1.743,0,3.465,0,5.222,0c0-0.458,0-0.899,0-1.334c0.658,0,1.281,0,1.928,0
			c0,0.45,0,0.885,0,1.332c4.038,0,8.052,0,12.089,0c0-0.453,0-0.888,0-1.33c0.655,0,1.285,0,1.938,0c0,0.452,0,0.887,0,1.333
			C24.213,15.159,25.989,15.159,27.783,15.159z M20.793,16.442c-4.26,0-8.488,0-12.742,0c0,0.493,0,0.963,0,1.43
			c-0.44,0-0.855,0-1.293,0c0-0.491,0-0.962,0-1.433c-1.621,0-3.219,0-4.845,0c0,0.752-0.007,1.483,0.007,2.216
			c0.002,0.123,0.067,0.275,0.155,0.363c1.38,1.394,2.766,2.78,4.161,4.16c0.093,0.092,0.258,0.157,0.39,0.157
			c6.742,0.007,13.485,0.007,20.228,0.006c0.095,0,0.188-0.009,0.28-0.013c0-2.317,0-4.604,0-6.888c-1.692,0-3.362,0-5.055,0
			c0,0.491,0,0.961,0,1.434c-0.44,0-0.854,0-1.285,0C20.793,17.392,20.793,16.928,20.793,16.442z M17.414,1.239
			c-1.967,0-3.917,0-5.868,0c0,0.89,0,1.753,0,2.626c1.967,0,3.917,0,5.868,0C17.414,2.976,17.414,2.112,17.414,1.239z"/>
	</g>
</g>
</svg>
