<?xml version="1.0" encoding="utf-8"?>
<!-- Generator: Adobe Illustrator 16.0.0, SVG Export Plug-In . SVG Version: 6.00 Build 0)  -->
<!DOCTYPE svg PUBLIC "-//W3C//DTD SVG 1.1//EN" "http://www.w3.org/Graphics/SVG/1.1/DTD/svg11.dtd">
<svg version="1.1" id="Layer_1" xmlns="http://www.w3.org/2000/svg" xmlns:xlink="http://www.w3.org/1999/xlink" x="0px" y="0px"
	 width="29px" height="37px" viewBox="0 0 29 37" enable-background="new 0 0 29 37" xml:space="preserve">
<g id="PaaPop.tif">
	<g>
		<path fill="#2E6BAE" d="M20.028,35.942c-6.677,0-13.353,0-20.028,0C0,23.961,0,11.981,0,0c9.621,0,19.24,0,28.861,0
			c0,9.126,0,18.252,0,27.378c-1.745,1.687-3.494,3.37-5.237,5.06C22.422,33.602,21.226,34.773,20.028,35.942z M27.101,25.49
			c0.013-0.174,0.032-0.316,0.032-0.458c0-7.608-0.001-15.217,0.007-22.824c0-0.314-0.067-0.419-0.404-0.419
			c-8.18,0.009-16.362,0.007-24.542,0.008c-0.118,0-0.237,0.014-0.36,0.022c0,10.786,0,21.536,0,32.305c5.59,0,11.159,0,16.767,0
			c0.025-0.181,0.076-0.361,0.076-0.544c0.005-2.058,0.003-4.114,0.003-6.171c0-1.285,0.638-1.919,1.93-1.919
			C22.755,25.49,24.9,25.49,27.101,25.49z"/>
		<path fill-rule="evenodd" clip-rule="evenodd" fill="#2E6BAE" d="M15.912,11.836c-0.532,1.448-1.042,2.837-1.552,4.226
			c-0.397,1.084-0.797,2.169-1.198,3.252c-0.287,0.777-0.904,0.937-1.519,0.393c-1.01-0.894-2.019-1.789-3.028-2.683
			c-0.092-0.082-0.185-0.162-0.309-0.269c-0.91,1.647-1.808,3.273-2.719,4.923c-0.498-0.273-0.967-0.531-1.46-0.803
			c0.053-0.107,0.095-0.206,0.147-0.301c0.989-1.8,1.979-3.6,2.97-5.399c0.402-0.729,0.936-0.82,1.551-0.269
			c0.953,0.856,1.907,1.711,2.861,2.567c0.081,0.073,0.169,0.14,0.282,0.235c0.053-0.127,0.098-0.225,0.136-0.325
			c0.898-2.455,1.797-4.909,2.688-7.366c0.127-0.348,0.3-0.634,0.688-0.709c0.418-0.08,0.698,0.125,0.95,0.438
			c0.783,0.971,1.582,1.93,2.375,2.893c0.069,0.085,0.144,0.167,0.257,0.299c1.188-2.295,2.357-4.558,3.541-6.85
			c0.506,0.26,0.981,0.505,1.485,0.764c-0.051,0.111-0.092,0.211-0.141,0.306c-1.29,2.504-2.582,5.007-3.873,7.511
			c-0.426,0.824-1.061,0.887-1.652,0.166c-0.758-0.919-1.514-1.84-2.27-2.76C16.067,12.008,16.007,11.943,15.912,11.836z"/>
	</g>
</g>
</svg>
